<svg width="25" height="13" viewBox="0 0 25 13" fill="none" xmlns="http://www.w3.org/2000/svg">
<path fill-rule="evenodd" clip-rule="evenodd" d="M24.4671 6.17532C24.4671 9.58599 18.9897 12.3509 12.2336 12.3509C5.47728 12.3509 0 9.58599 0 6.17532C0 2.76478 5.47728 2.78847e-10 12.2336 2.78847e-10C18.9897 -3.20615e-05 24.4671 2.76478 24.4671 6.17532ZM12.2336 0.486185C5.74225 0.486185 0.479544 3.03337 0.479544 6.17529C0.479544 9.31728 5.74225 11.8645 12.2336 11.8645C18.7248 11.8645 23.9873 9.31728 23.9873 6.17529C23.9873 3.03337 18.7248 0.486185 12.2336 0.486185Z" fill="#B7C0BD"/>
<path fill-rule="evenodd" clip-rule="evenodd" d="M23.6832 6.17522C23.6832 9.14831 18.557 11.5586 12.2337 11.5586C5.91017 11.5586 0.784058 9.14831 0.784058 6.17522C0.784058 3.20232 5.91017 0.792236 12.2337 0.792236C18.557 0.792236 23.6832 3.20229 23.6832 6.17522ZM19.5716 3.65497H17.6079L17.3687 4.34234H18.6397L17.1899 4.84696L17.0941 5.12574L19.325 4.39031L19.5716 3.65497ZM7.05153 4.86142H6.25162C6.25162 4.86142 6.99297 2.875 7.05242 2.72482C7.15818 2.45874 7.22132 2.47705 7.22132 2.47705H6.11652C6.25327 2.54284 6.13211 2.80216 6.13211 2.80216C6.13211 2.80216 5.24721 5.27944 5.18556 5.4032C5.12394 5.52722 5.07776 5.5428 5.07776 5.5428H6.99106L7.25867 4.8091C7.23561 4.87896 7.05153 4.86142 7.05153 4.86142ZM10.4077 5.53962H11.3088C11.3088 5.53962 11.2471 5.4477 11.2857 5.34716C11.339 5.2075 11.8171 3.89947 11.8171 3.89947L12.025 5.53962H12.8413L13.9114 2.6221C13.9114 2.6221 13.9552 2.48526 14.0149 2.48526L13.1475 2.48269C13.1475 2.48269 13.1723 2.5834 13.1414 2.66086C13.1108 2.73832 12.6177 4.06209 12.6177 4.06209L12.4252 2.48273H11.4936C11.4936 2.48273 11.5418 2.56006 11.511 2.64518C11.4858 2.71424 10.5233 5.37024 10.5233 5.37024C10.5233 5.37024 10.4618 5.53962 10.4077 5.53962ZM14.5278 2.48356C14.5278 2.48356 14.6048 2.60741 14.5045 2.89373C14.4043 3.18026 13.6189 5.30907 13.6189 5.30907C13.6189 5.30907 13.5571 5.50933 13.4726 5.54822L14.7048 5.54681C14.7048 5.54681 16.1985 5.60231 16.6607 4.02394C16.6607 4.02394 17.2459 2.46795 15.5517 2.48356H14.5278ZM14.6585 4.8419C14.6585 4.8419 14.6625 4.84068 14.8009 4.84068C15.0105 4.84068 15.3987 4.79422 15.6596 4.15565C16.0883 3.10604 15.4902 3.14153 15.4902 3.14153H15.2591L14.6585 4.8419ZM3.70071 8.0114H5.66434L5.90331 7.32389H4.63244L6.08214 6.81937L6.1782 6.54072L3.94718 7.27615L3.70071 8.0114ZM7.14191 9.27944C7.11088 9.27944 7.11088 9.17953 7.11088 9.17953L7.47204 8.21608C7.47204 8.21608 7.92195 9.10358 7.95286 9.16556C7.9837 9.22756 7.9681 9.27915 7.9681 9.27915H9.04446C8.94183 9.27915 8.83591 9.08306 8.83591 9.08306L8.30008 8.11646C9.04956 8.11646 9.2893 7.36965 9.2893 7.36965C9.65891 6.18262 8.41492 6.21353 8.41492 6.21353H7.14191C7.23421 6.3168 7.16226 6.53357 7.16226 6.53357C7.16226 6.53357 6.37166 8.80582 6.3102 8.98143C6.24852 9.15687 6.13562 9.27944 6.13562 9.27944H7.14191ZM7.90479 6.91838L7.69615 7.53493H7.89124C7.89124 7.53493 8.27128 7.56856 8.41148 7.26484C8.41148 7.26484 8.5755 6.91681 8.11701 6.91681C8.01664 6.91681 7.90479 6.91838 7.90479 6.91838ZM18.2793 9.29069C18.2023 9.29226 18.2559 9.10284 18.2559 9.10284L18.5782 8.2273C18.5782 8.2273 19.0126 9.11496 19.0431 9.1771C19.074 9.23895 19.0587 9.29053 19.0587 9.29053H20.1733C20.0705 9.29053 19.9575 9.09444 19.9575 9.09444L19.4214 8.12756C20.1713 8.12756 20.3968 7.40767 20.3968 7.40767C20.7906 6.16473 19.5367 6.22495 19.5367 6.22495H18.2737C18.3663 6.32818 18.2944 6.54495 18.2944 6.54495C18.2944 6.54495 17.4709 8.82592 17.4091 9.00121C17.3475 9.17707 17.2293 9.28896 17.2293 9.28896L18.2793 9.29069ZM19.0132 7.54605C19.0132 7.54605 19.3904 7.57471 19.5058 7.27769C19.642 6.9278 19.302 6.93707 19.302 6.93707H19.0233L18.818 7.54605H19.0132ZM10.6204 9.35527C11.7315 9.35527 12.3927 8.25968 12.3927 7.47366C12.3927 6.64912 12.0555 6.13463 11.2857 6.13463C10.3034 6.13463 9.66261 6.88388 9.49725 7.8154C9.34528 8.67203 9.82648 9.35527 10.6204 9.35527ZM10.6904 8.6308C10.9675 8.68222 11.2722 8.48174 11.4313 7.84108C11.6726 6.87163 11.2279 6.86365 11.1467 6.85368C10.9008 6.82347 10.5726 7.10818 10.4392 7.70181C10.3781 7.97292 10.3133 8.56055 10.6904 8.6308ZM12.6564 6.22495C12.6564 6.22495 12.7328 6.26618 12.7328 6.46214V9.11493C12.7328 9.11493 12.7224 9.26017 12.6678 9.29053H13.4933C13.4933 9.29053 13.4933 9.2284 13.5753 9.12522C13.6575 9.02202 15.3721 6.71017 15.3721 6.71017C15.3721 6.71017 15.7631 6.22495 15.8656 6.22495H14.6841C14.6841 6.22495 14.7767 6.28695 14.7048 6.40045C14.6329 6.51405 13.5826 8.09322 13.5826 8.09322L13.5958 6.50036C13.5958 6.50036 13.5939 6.24495 13.6959 6.2235L12.6564 6.22495ZM17.6476 6.94819L17.9145 6.22424L15.9125 6.22446C15.9125 6.22446 15.9843 6.28814 15.8921 6.54611C15.7995 6.8044 14.9884 9.00236 14.9884 9.00236C14.9884 9.00236 14.8447 9.29127 14.8039 9.29127H16.8674L17.1139 8.55853C17.1139 8.55853 17.0831 8.59973 16.8881 8.59973H16.0152L16.2002 8.10431H16.8776C16.8776 8.10431 17.0215 8.09405 17.0522 8.13538L17.3294 7.35221C17.3294 7.35221 17.3091 7.42306 17.124 7.42306H16.4669L16.6622 6.87618H17.4937C17.4937 6.87622 17.6067 6.86054 17.6476 6.94819ZM7.21045 5.54238H8.19811C8.19811 5.54238 8.19505 5.46614 8.22079 5.4166C8.26774 5.32715 8.39027 5.11134 8.39027 5.11134H9.38431L9.38623 5.38057C9.38623 5.38057 9.39133 5.47335 9.31817 5.54495H10.3039C10.3039 5.54495 10.2307 5.50362 10.2172 5.38175L10.0936 2.68786C10.0936 2.68786 10.0882 2.51569 10.1697 2.47942H9.19187C9.19187 2.47942 9.26034 2.56452 9.12942 2.75804C8.99863 2.9516 7.3281 5.44161 7.3281 5.44161C7.3281 5.44161 7.2949 5.50564 7.21045 5.54238ZM9.36537 3.52204L8.81649 4.4198H9.37325L9.36537 3.52204Z" fill="#B7C0BD"/>
</svg>
