<svg width="16" height="16" viewBox="0 0 16 16" fill="none" xmlns="http://www.w3.org/2000/svg">
<path d="M8 0C3.58171 0 0 3.58182 0 8.00024C0 12.4187 3.58171 16.0005 8 16.0005C12.4183 16.0005 16 12.4187 16 8.00024C16 3.58182 12.4183 0 8 0ZM8 14.4521C4.43445 14.4521 1.54839 11.5665 1.54839 8.00024C1.54839 4.43462 4.4339 1.54843 8 1.54843C11.5655 1.54843 14.4516 4.43404 14.4516 8.00024C14.4516 11.5659 11.5661 14.4521 8 14.4521ZM11.4629 11.1918C11.1528 11.5051 9.99423 12.5272 8.106 12.5272C5.44697 12.5272 3.57426 10.5457 3.57426 7.9604C3.57426 5.40704 5.51861 3.46346 8.08271 3.46346C9.87403 3.46346 10.9452 4.3222 11.2309 4.5854C11.298 4.64713 11.3411 4.73064 11.3525 4.82111C11.3639 4.91158 11.343 5.00318 11.2933 5.07967L10.7077 5.98657C10.5838 6.17851 10.3217 6.22148 10.1432 6.0808C9.86594 5.86221 9.11693 5.35374 8.15261 5.35374C6.59445 5.35374 5.63919 6.49346 5.63919 7.93711C5.63919 9.27874 6.50655 10.6369 8.16426 10.6369C9.21771 10.6369 9.9979 10.0228 10.2845 9.75869C10.4545 9.602 10.723 9.62839 10.8593 9.81475L11.5001 10.6912C11.5547 10.7654 11.581 10.8566 11.5742 10.9484C11.5674 11.0402 11.5279 11.1266 11.4629 11.1918Z" fill="#857885"/>
</svg>
