<svg width="79" height="80" viewBox="0 0 79 80" fill="none" xmlns="http://www.w3.org/2000/svg">
<path d="M75.7438 64.1798C81.6449 36.3416 76.8407 17.9806 73.7679 12.3517L73.7567 12.3311L73.7477 12.3095C72.4959 9.32559 69.6113 5.19886 65.0483 2.56574C60.7595 0.090881 54.9576 -1.0832 47.5611 1.29838L47.5656 1.31166C20.6058 10.4197 7.25559 23.9096 3.97808 29.4218L3.96611 29.4419L3.95214 29.4607C2.02251 32.0583 -0.0583186 36.6432 0.00124794 41.9111C0.0573372 46.8715 2.01068 52.4734 7.85379 57.6317L7.85635 57.6287C29.4244 75.708 47.7919 80.016 54.1853 79.9354L54.2086 79.9352L54.2318 79.9372C57.4413 80.2248 62.4304 79.6123 66.9113 76.836C70.7187 74.477 74.1826 70.542 75.8745 64.2075L75.7438 64.1798Z" fill="#F7F3FA"/>
</svg>
