<svg width="50" height="52" viewBox="0 0 50 52" fill="none" xmlns="http://www.w3.org/2000/svg">
<path d="M48.0691 40.9322C51.8141 23.1777 48.7652 11.4676 46.8152 7.87761L46.8081 7.86451L46.8023 7.85073C46.0079 5.94765 44.1773 3.31573 41.2814 1.63641C38.5597 0.0580047 34.8776 -0.690791 30.1836 0.828117L30.1865 0.836583C13.077 6.64545 4.60462 15.2489 2.52461 18.7645L2.51702 18.7773L2.50816 18.7893C1.28356 20.446 -0.0369924 23.3701 0.000810146 26.7298C0.036406 29.8934 1.27605 33.4661 4.98425 36.756L4.98587 36.754C18.6736 48.2846 30.3301 51.0321 34.3875 50.9807L34.4023 50.9805L34.417 50.9818C36.4538 51.1652 39.6201 50.7746 42.4638 49.004C44.88 47.4994 47.0784 44.9898 48.1521 40.9498L48.0691 40.9322Z" fill="#F7F3FA"/>
</svg>
