<svg width="86" height="88" viewBox="0 0 86 88" fill="none" xmlns="http://www.w3.org/2000/svg">
<path opacity="0.15" d="M82.9428 70.2797C89.4047 39.7957 84.1439 19.6896 80.7791 13.5257L80.7668 13.5032L80.7569 13.4796C79.3862 10.212 76.2274 5.69304 71.2307 2.80967C66.5343 0.0995848 60.1809 -1.18608 52.0815 1.42185L52.0864 1.43639C22.5642 11.4101 7.94519 26.1821 4.35617 32.2182L4.34306 32.2403L4.32777 32.2609C2.21474 35.1053 -0.0638587 40.126 0.00136924 45.8945C0.0627894 51.3264 2.20178 57.4607 8.60024 63.1093L8.60305 63.106C32.221 82.9037 52.3343 87.6211 59.3353 87.5329L59.3608 87.5325L59.3862 87.5348C62.9007 87.8498 68.364 87.179 73.2708 84.1389C77.44 81.5556 81.2332 77.2467 83.0859 70.3101L82.9428 70.2797Z" fill="#FCF9FE"/>
</svg>
